<?xml version="1.0" standalone="no"?><!-- Generator: Gravit.io --><svg xmlns="http://www.w3.org/2000/svg" xmlns:xlink="http://www.w3.org/1999/xlink" style="isolation:isolate" viewBox="13 14 20 24" width="20" height="24"><g id="Note"><rect x="14" y="22" width="17.143" height="15" transform="matrix(1,0,0,1,0,0)" fill="rgb(0,153,218)"/><rect x="20.993" y="15" width="10.149" height="11" transform="matrix(1,0,0,1,0,0)" fill="rgb(0,153,218)"/><polygon points="13,23.001,20.993,14,21.965,22.913" fill="rgb(0,153,218)"/><line x1="14" y1="37" x2="32" y2="37" vector-effect="non-scaling-stroke" stroke-width="2" stroke="rgb(0,153,218)" stroke-linejoin="miter" stroke-linecap="square" stroke-miterlimit="3"/><line x1="14" y1="37" x2="14" y2="24" vector-effect="non-scaling-stroke" stroke-width="2" stroke="rgb(0,153,218)" stroke-linejoin="miter" stroke-linecap="square" stroke-miterlimit="3"/><line x1="32" y1="37" x2="32" y2="15" vector-effect="non-scaling-stroke" stroke-width="2" stroke="rgb(0,153,218)" stroke-linejoin="miter" stroke-linecap="square" stroke-miterlimit="3"/><line x1="22" y1="15" x2="32" y2="15" vector-effect="non-scaling-stroke" stroke-width="2" stroke="rgb(0,153,218)" stroke-linejoin="miter" stroke-linecap="square" stroke-miterlimit="3"/><line x1="14.972" y1="23.001" x2="13.061" y2="23.001" vector-effect="non-scaling-stroke" stroke-width="0.059" stroke="rgb(0,153,218)" stroke-linejoin="miter" stroke-linecap="square" stroke-miterlimit="3"/><g id="Group"><rect x="22.025" y="19.51" width="4.461" height="11.743" transform="matrix(0.736,0.677,-0.677,0.736,23.59,-9.72)" fill="rgb(255,255,255)"/><polygon points="17.22,33.028,18.638,28.192,21.921,31.212" fill="rgb(255,255,255)"/><rect x="22.447" y="21.849" width="8.923" height="1.296" transform="matrix(0.736,0.677,-0.677,0.736,22.338,-12.278)" fill="rgb(0,153,218)"/><rect x="16.387" y="28.245" width="8.923" height="1.679" transform="matrix(0.736,0.677,-0.677,0.736,25.197,-6.435)" fill="rgb(0,153,218)"/></g></g></svg>