<svg width="308" height="264" viewBox="0 0 308 264" fill="none" xmlns="http://www.w3.org/2000/svg">
<path d="M146.638 264C122.35 264.023 98.5602 257.112 78.0653 244.079L77.2771 243.559L77.7622 242.832L78.5417 243.351C98.8929 256.297 122.518 263.16 146.638 263.134C216.89 263.134 274.047 205.969 274.047 135.724C274.047 65.4804 216.89 8.22845 146.638 8.22845C85.4566 8.22281 32.9101 51.708 21.4716 111.81L20.6055 111.654C32.1202 51.1355 85.0331 7.34988 146.638 7.36231C217.402 7.36231 274.913 64.9607 274.913 135.724C274.913 206.488 217.402 264 146.638 264Z" fill="#66C0E7"/>
<path d="M31.5794 117.137C31.2609 117.135 30.9547 117.26 30.7286 117.484C30.5026 117.708 30.3755 118.014 30.3755 118.332V148.647C30.3755 148.966 30.5026 149.271 30.7286 149.496C30.9547 149.72 31.2609 149.845 31.5794 149.843H53.233C53.55 149.843 53.854 149.717 54.0782 149.492C54.3023 149.268 54.4282 148.964 54.4282 148.647V118.332C54.4282 117.672 53.8931 117.137 53.233 117.137H31.5794Z" fill="#CFD6D9"/>
<path d="M1.5591 112.252C1.14491 112.25 0.747008 112.413 0.454124 112.706C0.16124 112.999 -0.00227225 113.397 2.38594e-05 113.811V153.134C-0.00227225 153.548 0.16124 153.946 0.454124 154.239C0.747008 154.532 1.14491 154.695 1.5591 154.693H29.7087C30.1229 154.695 30.5208 154.532 30.8137 154.239C31.1066 153.946 31.2701 153.548 31.2678 153.134V113.811C31.2701 113.397 31.1066 112.999 30.8137 112.706C30.5208 112.413 30.1229 112.25 29.7087 112.252H1.5591Z" fill="#F2F4F5"/>
<path d="M53.6488 224.019C35.6876 205.187 23.9209 181.309 19.9299 155.594L20.7961 155.455C24.7525 181.01 36.4343 204.743 54.2725 223.465L53.6488 224.019Z" fill="#66C0E7"/>
<path d="M255.598 208.134C257.942 208.134 259.842 206.234 259.842 203.89C259.842 201.546 257.942 199.646 255.598 199.646C253.254 199.646 251.354 201.546 251.354 203.89C251.354 206.234 253.254 208.134 255.598 208.134Z" fill="#FFE700"/>
<path d="M256.139 201.811H255.338V205.969H256.139V201.811Z" fill="#0099DA"/>
<path d="M257.677 203.63H253.52V204.43H257.677V203.63Z" fill="#0099DA"/>
<path d="M118.748 13.6243C120.197 13.6243 121.372 12.4493 121.372 10.9999C121.372 9.55048 120.197 8.37549 118.748 8.37549C117.299 8.37549 116.124 9.55048 116.124 10.9999C116.124 12.4493 117.299 13.6243 118.748 13.6243Z" fill="#0099DA"/>
<path d="M31.7876 197.55C34.7438 197.55 37.1403 195.153 37.1403 192.197C37.1403 189.241 34.7438 186.844 31.7876 186.844C28.8313 186.844 26.4348 189.241 26.4348 192.197C26.4348 195.153 28.8313 197.55 31.7876 197.55Z" fill="#FFE700"/>
<path d="M254.888 72.3747C257.729 72.3747 260.033 70.0713 260.033 67.2298C260.033 64.3884 257.729 62.085 254.888 62.085C252.047 62.085 249.743 64.3884 249.743 67.2298C249.743 70.0713 252.047 72.3747 254.888 72.3747Z" fill="#0099DA"/>
<path d="M63.7481 51.2756C71.2105 51.2756 77.2599 45.2261 77.2599 37.7638C77.2599 30.3014 71.2105 24.252 63.7481 24.252C56.2858 24.252 50.2363 30.3014 50.2363 37.7638C50.2363 45.2261 56.2858 51.2756 63.7481 51.2756Z" fill="#023852"/>
<path d="M60.0236 31.7874H57.5984V43.8267H60.0236V31.7874Z" fill="#F4F6F7"/>
<path d="M69.9843 33.0864H67.5591V43.8266H69.9843V33.0864Z" fill="#F4F6F7"/>
<path d="M63.4015 34.7324H60.9763V43.8269H63.4015V34.7324Z" fill="#F4F6F7"/>
<path d="M66.7794 37.6772H64.3542V43.8268H66.7794V37.6772Z" fill="#F4F6F7"/>
<path opacity="0.3" d="M222.512 43.8267C222.526 44.1145 222.424 44.3959 222.228 44.6076C222.033 44.8194 221.76 44.9437 221.472 44.9526H198.433C198.145 44.9437 197.873 44.8194 197.677 44.6076C197.482 44.3959 197.38 44.1145 197.394 43.8267V9.61404H220.779C221.194 9.61174 221.592 9.77525 221.884 10.0681C222.177 10.361 222.341 10.7589 222.339 11.1731V43.8267H222.512Z" fill="#003A5D"/>
<path d="M15.0709 138.236L18.5355 128.795H17.5827L14.1182 138.15L15.0709 138.236Z" fill="#0099DA"/>
<path d="M19.3149 128.795V130.008L22.6929 133.472L19.3149 136.764V138.063L23.9055 133.472L19.3149 128.795Z" fill="#0099DA"/>
<path d="M13.4252 138.063V136.764L9.96065 133.472L13.4252 130.008V128.795L8.74805 133.472L13.4252 138.063Z" fill="#0099DA"/>
<path d="M233.979 226.409C234.003 227.644 234.892 228.692 236.106 228.916C237.321 229.139 238.525 228.478 238.987 227.333C239.449 226.188 239.042 224.876 238.012 224.194C236.983 223.512 235.616 223.649 234.742 224.521C234.287 225.05 234.019 225.713 233.979 226.409Z" fill="#0099DA"/>
<path d="M39.5825 129.488V136.937C39.5825 136.96 39.5916 136.982 39.6079 136.998C39.6241 137.014 39.6462 137.024 39.6691 137.024H39.7558L42.9605 135.118L46.1652 133.213C46.1652 133.213 46.2518 133.126 46.1652 133.126C46.1652 133.078 46.1264 133.039 46.0786 133.039L42.8739 131.134L39.6691 129.228C39.6691 129.402 39.5825 129.402 39.5825 129.488Z" fill="#0099DA"/>
<path d="M302.543 96.2282C302.543 96.1416 302.543 96.1416 302.63 96.055C302.716 95.9684 302.89 95.9684 302.976 95.9684L307.913 95.8818C308 95.8818 308 95.7951 308 95.7085C308 95.6607 307.961 95.6219 307.913 95.6219L302.976 95.5353C302.803 95.5353 302.716 95.5353 302.63 95.4487C302.543 95.3621 302.543 95.3621 302.543 95.2755C302.543 95.1888 302.63 95.0156 302.716 94.929L304.449 93.1101C304.472 93.0873 304.485 93.0561 304.485 93.0235C304.485 92.9909 304.472 92.9597 304.449 92.9369H304.276L302.457 94.6692C302.37 94.7558 302.283 94.8424 302.197 94.8424C302.11 94.8424 302.11 94.8424 302.024 94.7558C301.937 94.6691 301.937 94.5825 301.937 94.4093L301.85 89.3857C301.85 89.3379 301.812 89.2991 301.764 89.2991C301.716 89.2991 301.677 89.3379 301.677 89.3857L301.59 94.4093C301.603 94.5314 301.573 94.6541 301.504 94.7558C301.504 94.8424 301.417 94.8424 301.331 94.8424C301.244 94.8424 301.071 94.7558 300.984 94.6692L299.165 92.9369H298.992C298.969 92.9597 298.956 92.9909 298.956 93.0235C298.956 93.0561 298.969 93.0873 298.992 93.1101L300.724 94.929C300.831 95.0125 300.895 95.1398 300.898 95.2755C300.898 95.3621 300.898 95.3621 300.811 95.4487C300.709 95.5176 300.587 95.5483 300.464 95.5353L295.441 95.6219C295.354 95.6219 295.354 95.7085 295.354 95.7951C295.354 95.843 295.393 95.8818 295.441 95.8818L300.464 95.9684C300.587 95.9554 300.709 95.9861 300.811 96.055C300.898 96.055 300.898 96.1416 300.898 96.2282C300.898 96.3148 300.811 96.4014 300.724 96.4881L298.992 98.3069C298.969 98.3298 298.956 98.361 298.956 98.3936C298.956 98.4261 298.969 98.4574 298.992 98.4802H299.165L300.984 96.7479C301.071 96.6613 301.157 96.5747 301.244 96.5747C301.331 96.5747 301.331 96.5747 301.417 96.6613C301.486 96.7629 301.517 96.8856 301.504 97.0077L301.59 102.031C301.59 102.079 301.629 102.118 301.677 102.118C301.725 102.118 301.764 102.079 301.764 102.031L301.85 97.0077C301.85 96.8345 301.85 96.7479 301.937 96.6613C302.024 96.5747 302.024 96.5747 302.11 96.5747C302.197 96.5747 302.283 96.6613 302.37 96.7479L304.189 98.4802H304.362C304.385 98.4574 304.399 98.4261 304.399 98.3936C304.399 98.361 304.385 98.3298 304.362 98.3069L302.63 96.4881C302.641 96.3928 302.61 96.2975 302.543 96.2282Z" fill="#F4F6F7"/>
<g style="mix-blend-mode:multiply">
<path d="M304.016 119.874V116.583C304.069 115.933 303.678 115.328 303.063 115.11C302.871 115.033 302.663 115.003 302.457 115.024H273.614C273.437 115.031 273.26 115.001 273.094 114.937C272.649 114.831 272.29 114.504 272.142 114.071L271.882 113.378L271.016 111.732L270.236 110.087L269.976 109.394C269.747 109.02 269.417 108.72 269.024 108.528C268.85 108.528 268.764 108.441 268.504 108.441H253.26C252.38 108.431 251.651 109.121 251.614 110V113.031C251.032 113.289 250.658 113.867 250.661 114.504V150.622H250.575V155.732C250.618 156.622 251.33 157.334 252.22 157.378L303.323 157.465C303.557 157.479 303.792 157.449 304.016 157.378C304.658 157.132 305.075 156.507 305.055 155.819V121C304.813 120.54 304.454 120.152 304.016 119.874Z" fill="#DFE4E6"/>
</g>
<path d="M270.496 111.299C269.89 111.279 269.335 110.953 269.024 110.433L268.764 109.74L267.984 108.094L267.205 106.449L266.945 105.756C266.677 105.193 266.094 104.851 265.473 104.89H250.228C249.349 104.88 248.62 105.57 248.583 106.449V145.945C248.573 146.825 249.263 147.553 250.142 147.591H299.512C300.391 147.601 301.12 146.91 301.158 146.031V112.598C301.168 111.719 300.477 110.99 299.598 110.953H277.512L270.496 111.299Z" fill="#A5B1B8"/>
<path d="M250.691 122.897L250.707 113.63L298.518 113.713L298.502 122.981L250.691 122.897Z" fill="#F4F6F7"/>
<path d="M270.236 115.976C269.586 116.029 268.982 115.638 268.764 115.024L268.504 114.331L267.724 112.685L266.945 111.039L266.685 110.346C266.427 109.765 265.849 109.391 265.213 109.394H249.362C248.472 109.437 247.76 110.149 247.717 111.039V152.094C247.76 152.985 248.472 153.697 249.362 153.74H300.465C301.355 153.697 302.067 152.985 302.11 152.094V117.275C302.067 116.385 301.355 115.673 300.465 115.63H277.685L270.236 115.976Z" fill="#CFD6D9"/>
<g style="mix-blend-mode:multiply">
<path d="M259.795 132.679L259.796 131.813L292.103 131.87L292.102 132.736L259.795 132.679Z" fill="#0097D7"/>
</g>
<g style="mix-blend-mode:multiply">
<path d="M259.767 134.572L259.769 133.706L280.556 133.742L280.555 134.609L259.767 134.572Z" fill="#0097D7"/>
</g>
<g style="mix-blend-mode:multiply">
<path d="M259.837 136.429L259.838 135.563L280.626 135.599L280.624 136.465L259.837 136.429Z" fill="#0097D7"/>
</g>
<path d="M195.142 45.3859H222.772C223.296 45.3812 223.72 44.9573 223.724 44.4331V6.32287C223.72 5.79864 223.296 5.37482 222.772 5.37012H195.142C194.618 5.37482 194.194 5.79864 194.189 6.32287V44.3465C194.016 44.8662 194.536 45.3859 195.142 45.3859Z" fill="#0099DA"/>
<path d="M218.788 26.6772H199.299V27.4778H218.788V26.6772Z" fill="#F4F6F7"/>
<path d="M218.788 33.7795H199.299V34.5801H218.788V33.7795Z" fill="#F4F6F7"/>
<path d="M214.197 30.0552H199.299V30.8557H214.197V30.0552Z" fill="#F4F6F7"/>
<path d="M214.197 37.3308H199.299V38.1313H214.197V37.3308Z" fill="#F4F6F7"/>
<path d="M218.788 12.6455H199.299V13.446H218.788V12.6455Z" fill="#F4F6F7"/>
<path d="M218.788 19.9214H199.299V20.7219H218.788V19.9214Z" fill="#F4F6F7"/>
<path d="M214.197 16.1101H199.299V16.9106H214.197V16.1101Z" fill="#F4F6F7"/>
<path d="M214.197 23.2993H199.299V24.0998H214.197V23.2993Z" fill="#F4F6F7"/>
<path d="M182.929 40.0157H210.559C211.083 40.011 211.507 39.5872 211.512 39.063V0.952756C211.507 0.428523 211.083 0.00470192 210.559 0H182.929C182.405 0.00470192 181.981 0.428523 181.976 0.952756V38.9764C181.918 39.2501 181.996 39.535 182.185 39.7413C182.374 39.9476 182.651 40.0498 182.929 40.0157Z" fill="#F2F4F5"/>
<path d="M206.661 20.2678H187.173V21.0683H206.661V20.2678Z" fill="#0099DA"/>
<path d="M206.661 27.7166H187.173V28.5171H206.661V27.7166Z" fill="#0099DA"/>
<path d="M202.071 24.0786H187.173V24.8791H202.071V24.0786Z" fill="#0099DA"/>
<path d="M206.661 9.18091H187.173V9.98143H206.661V9.18091Z" fill="#0099DA"/>
<path d="M206.661 16.6299H187.173V17.4304H206.661V16.6299Z" fill="#0099DA"/>
<path d="M202.071 12.8188H187.173V13.6194H202.071V12.8188Z" fill="#0099DA"/>
<path d="M202.071 31.5276H187.173V32.3281H202.071V31.5276Z" fill="#0099DA"/>
<path opacity="0.3" d="M167.079 155.386C155.357 167.093 136.662 167.99 123.873 157.457C111.084 146.925 108.38 128.405 117.623 114.656C126.867 100.906 145.037 96.42 159.618 104.287C174.198 112.154 180.425 129.804 174.008 145.079C172.356 148.914 170.007 152.409 167.079 155.386Z" fill="#003A5D"/>
<path d="M179.811 129.488C179.798 113.612 169.515 99.5689 154.384 94.7634C139.253 89.958 122.751 95.4948 113.58 108.454C104.41 121.414 104.678 138.818 114.244 151.488H115.11C122.034 160.036 132.446 165.002 143.446 165.002C154.446 165.002 164.858 160.036 171.782 151.488H172.466C177.264 145.16 179.845 137.429 179.811 129.488Z" fill="#0099DA"/>
<path d="M176 153.827C176 153.827 175.74 154.173 175.394 154.693C175.047 155.213 174.354 155.906 173.661 156.685C172.968 157.465 172.102 158.331 171.236 159.197C170.384 160.067 169.423 160.824 168.378 161.449L170.37 163.441L172.362 165.433L174.354 167.425L176.346 169.417L178.252 167.512L180.157 165.606L182.063 163.701L183.968 161.795L182.063 159.803L180.157 157.811L178.252 155.819L176 153.827Z" fill="url(#paint0_linear)"/>
<path opacity="0.2" d="M168.291 152.874L144.213 128.795L120.134 104.716C122.199 101.53 125.027 98.9099 128.362 97.0944C134.165 93.8897 143.173 91.9842 156.252 96.9212C169.331 101.858 176.693 112.079 178.598 122.905C180.615 134.008 176.711 145.361 168.291 152.874Z" fill="#F4F6F7"/>
<path d="M195.315 173.142L190.465 168.291L185.614 163.441L180.764 158.591L175.913 153.74C177.226 152.009 178.413 150.185 179.465 148.284C180.515 146.335 181.413 144.308 182.15 142.221C182.881 140.106 183.431 137.932 183.795 135.725C184.173 133.463 184.375 131.175 184.402 128.882C184.41 123.409 183.32 117.989 181.197 112.945C179.124 108.103 176.156 103.695 172.449 99.9529C168.714 96.2364 164.305 93.2673 159.457 91.2048C149.262 86.9317 137.778 86.9317 127.583 91.2048C122.74 93.2776 118.332 96.2456 114.591 99.9529C110.855 103.672 107.884 108.085 105.843 112.945C101.569 123.14 101.569 134.624 105.843 144.819C107.915 149.661 110.883 154.069 114.591 157.811C118.309 161.546 122.723 164.518 127.583 166.559C132.627 168.683 138.046 169.773 143.52 169.764C145.815 169.785 148.107 169.582 150.362 169.158C152.57 168.793 154.743 168.243 156.858 167.512C158.954 166.795 160.982 165.897 162.921 164.827C164.823 163.776 166.647 162.589 168.378 161.276L173.228 166.126L178.079 170.976L182.929 175.827L187.78 180.677L189.685 178.772L191.591 176.866L193.496 174.961L195.315 173.142ZM143.433 161.276C126.904 161.228 113.098 148.666 111.493 132.215C109.888 115.763 121.006 100.771 137.214 97.5292C153.423 94.2875 169.452 103.851 174.298 119.654C179.144 135.457 171.232 152.362 155.992 158.764C152.021 160.45 147.747 161.305 143.433 161.276Z" fill="#E3E5E8"/>
<g opacity="0.6">
<path opacity="0.6" d="M148.457 168.551C124.836 168.527 105.693 149.385 105.669 125.764C105.656 123.325 105.859 120.891 106.276 118.488C106.669 116.165 107.248 113.876 108.008 111.646C108.783 109.462 109.739 107.347 110.866 105.323C111.954 103.302 113.23 101.388 114.677 99.6062C112.767 101.443 111.054 103.475 109.567 105.669C108.064 107.889 106.76 110.236 105.669 112.685C104.602 115.196 103.789 117.807 103.244 120.48C102.69 123.218 102.4 126.002 102.378 128.795C102.369 134.268 103.459 139.688 105.583 144.732C107.656 149.575 110.623 153.982 114.331 157.724C118.05 161.459 122.463 164.431 127.323 166.472C132.367 168.596 137.787 169.686 143.26 169.677C144.386 169.677 145.425 169.677 146.551 169.59C147.677 169.504 148.717 169.417 149.756 169.244C150.795 169.071 151.835 168.898 152.874 168.638C153.913 168.378 154.866 168.118 155.906 167.772L154.087 168.031C153.485 168.132 152.877 168.19 152.268 168.205C151.635 168.279 150.999 168.308 150.362 168.291C149.752 168.51 149.103 168.599 148.457 168.551Z" fill="#E3E5E8"/>
</g>
<path d="M210.299 196.354C210.917 195.745 211.391 195.005 211.685 194.189C212.262 192.624 212.262 190.904 211.685 189.339C211.338 188.55 210.87 187.819 210.299 187.173L202.764 179.638L195.228 172.102L187.693 164.567L180.157 157.031L177.905 159.283L175.653 161.535L173.401 163.787L171.149 166.039L178.685 173.575L186.22 181.11L193.756 188.646L201.291 196.181C202.52 197.372 204.171 198.026 205.882 198C206.708 197.983 207.526 197.836 208.307 197.567C209.073 197.362 209.765 196.941 210.299 196.354Z" fill="#023852"/>
<path d="M210.62 187.468L209.693 186.541L208.74 185.605L207.805 184.67L206.869 183.735C208.039 184.939 208.681 186.56 208.653 188.239C208.635 189.047 208.491 189.847 208.229 190.612C207.89 191.386 207.431 192.103 206.869 192.734C205.667 193.902 204.05 194.544 202.374 194.518C201.566 194.499 200.765 194.356 200.001 194.094C199.227 193.754 198.511 193.295 197.879 192.734L198.805 193.669L199.741 194.596L200.676 195.531L201.612 196.467C202.814 197.635 204.431 198.277 206.107 198.251C207.783 198.277 209.4 197.635 210.602 196.467C211.77 195.265 212.412 193.647 212.387 191.972C212.379 191.16 212.235 190.355 211.962 189.59C211.68 188.79 211.221 188.065 210.62 187.468Z" fill="url(#paint1_linear)"/>
<path d="M53.3976 215.816C52.9782 215.853 52.6457 216.185 52.6094 216.605V250.765C52.6457 251.185 52.9782 251.517 53.3976 251.553H78.1692C78.5886 251.517 78.9211 251.185 78.9574 250.765V216.605C78.9211 216.185 78.5886 215.853 78.1692 215.816H53.3976Z" fill="#FFE700"/>
<path d="M73.4835 227.527H58.1182V228.327H73.4835V227.527Z" fill="#0099DA"/>
<path d="M73.4835 237.609H58.1182V238.409H73.4835V237.609Z" fill="#0099DA"/>
<path d="M69.993 232.568H58.1182V233.368H69.993V232.568Z" fill="#0099DA"/>
<path d="M69.993 242.338H58.1182V243.138H69.993V242.338Z" fill="#0099DA"/>
<path d="M145.434 145.009H141.103C140.746 145.045 140.389 144.932 140.118 144.695C139.847 144.459 139.687 144.121 139.674 143.762C139.535 142.636 139.362 141.536 139.215 140.696C139.215 140.462 138.86 140.185 138.444 140.02C138.117 139.846 137.728 139.83 137.387 139.977L136.755 140.453C136.209 140.869 135.655 141.319 135.118 141.709C134.851 141.977 134.485 142.122 134.107 142.109C133.729 142.096 133.374 141.926 133.126 141.64C132.806 141.311 132.476 140.99 132.156 140.67L132 140.523L130.051 138.582C129.727 138.309 129.533 137.912 129.516 137.489C129.5 137.065 129.663 136.654 129.965 136.356C130.259 136.01 130.528 135.655 130.831 135.3C131.134 134.945 131.342 134.624 131.61 134.304C131.879 133.983 131.801 133.992 131.68 133.568C131.625 133.092 131.376 132.661 130.992 132.375C130.608 132.09 130.124 131.976 129.653 132.06C129.265 132.057 128.879 132.014 128.501 131.931C128.284 131.887 128.059 131.853 127.843 131.827C127.477 131.828 127.127 131.676 126.879 131.408C126.63 131.139 126.506 130.779 126.535 130.415C126.535 128.948 126.535 127.484 126.535 126.023C126.495 125.299 127.049 124.679 127.773 124.638L129.046 124.456C129.627 124.36 130.198 124.274 130.779 124.205C131.03 124.205 131.117 124.109 131.324 123.78C131.595 123.447 131.718 123.018 131.664 122.593C131.61 122.167 131.384 121.783 131.039 121.528C130.753 121.242 130.492 120.932 130.259 120.601C130.12 120.419 129.982 120.229 129.835 120.056C129.581 119.812 129.438 119.476 129.438 119.125C129.438 118.773 129.581 118.437 129.835 118.194C131.004 116.99 132.078 115.916 133.109 114.902C133.372 114.626 133.736 114.47 134.118 114.47C134.499 114.47 134.864 114.626 135.127 114.902C135.317 115.058 135.517 115.205 135.724 115.353C136.092 115.608 136.434 115.898 136.746 116.219C136.955 116.513 137.277 116.708 137.634 116.757C137.992 116.806 138.354 116.705 138.635 116.479C139.068 116.219 139.18 116.132 139.206 115.794C139.267 115.145 139.371 114.495 139.483 113.871C139.535 113.534 139.596 113.187 139.648 112.849C139.668 112.488 139.834 112.15 140.109 111.915C140.384 111.679 140.743 111.566 141.103 111.602H145.434C145.797 111.563 146.16 111.679 146.434 111.921C146.708 112.164 146.866 112.51 146.872 112.875C146.915 113.256 146.976 113.646 147.036 114.027C147.097 114.408 147.192 114.989 147.227 115.474C147.235 115.992 147.59 116.44 148.093 116.565C148.56 116.875 149.184 116.794 149.557 116.375C149.955 116.023 150.375 115.697 150.813 115.396L151.523 114.868C151.773 114.623 152.111 114.491 152.461 114.501C152.81 114.511 153.14 114.662 153.376 114.919C154.39 115.916 155.386 116.929 156.382 117.942L156.529 118.09C156.832 118.363 157.009 118.75 157.017 119.159C157.025 119.567 156.864 119.96 156.572 120.246L155.897 121.112C155.585 121.519 155.282 121.918 154.953 122.308C154.788 122.498 154.762 122.611 154.875 123.027C155.026 123.933 155.858 124.564 156.772 124.464C157.208 124.48 157.643 124.532 158.071 124.62L158.669 124.716C159.031 124.731 159.372 124.893 159.613 125.163C159.855 125.434 159.976 125.791 159.95 126.153C159.95 127.591 159.95 129.02 159.95 130.484C159.987 130.86 159.864 131.234 159.612 131.515C159.361 131.796 159.003 131.96 158.625 131.965C158.279 132.008 157.941 132.069 157.603 132.121C157.032 132.208 156.443 132.303 155.871 132.346C155.507 132.346 155.386 132.502 155.117 132.961C154.884 133.241 154.778 133.604 154.822 133.965C154.866 134.325 155.058 134.652 155.351 134.867C155.694 135.219 156.007 135.598 156.287 136.001L156.702 136.547C156.943 136.782 157.078 137.103 157.078 137.439C157.078 137.775 156.943 138.097 156.702 138.331L155.013 140.064L153.376 141.692C153.106 141.981 152.728 142.145 152.333 142.145C151.937 142.145 151.559 141.981 151.289 141.692C150.977 141.432 150.657 141.181 150.328 140.93C149.998 140.679 149.548 140.332 149.176 140.012C148.968 139.838 148.864 139.812 148.457 139.925C147.629 140.058 147.057 140.826 147.166 141.657C147.15 142.174 147.081 142.688 146.958 143.19C146.958 143.424 146.863 143.658 146.828 143.892C146.747 144.583 146.126 145.08 145.434 145.009ZM144.568 144.143H145.434C145.841 144.143 145.945 144.022 145.988 143.727C146.032 143.433 146.075 143.234 146.127 142.982C146.235 142.537 146.299 142.081 146.317 141.623C146.19 140.393 147.019 139.268 148.232 139.024C148.745 138.813 149.334 138.914 149.747 139.284C150.12 139.596 150.492 139.882 150.873 140.15C151.254 140.419 151.54 140.661 151.861 140.93C152.354 141.337 152.588 141.181 152.787 140.99L154.416 139.371C154.979 138.799 155.542 138.227 156.096 137.638C156.2 137.534 156.347 137.387 156.035 136.997C155.888 136.816 155.75 136.616 155.602 136.426C155.342 136.06 155.052 135.715 154.736 135.395C153.838 134.667 153.674 133.361 154.364 132.433C154.606 131.846 155.159 131.446 155.793 131.402C156.356 131.359 156.928 131.264 157.482 131.177L158.53 131.021C158.972 130.969 159.11 130.822 159.102 130.406C159.102 128.977 159.102 127.539 159.102 126.075C159.102 125.694 158.972 125.547 158.582 125.495L157.932 125.391C157.562 125.313 157.185 125.267 156.806 125.253C155.455 125.392 154.225 124.467 153.983 123.131C153.769 122.62 153.863 122.033 154.225 121.615C154.546 121.242 154.849 120.844 155.152 120.454C155.455 120.064 155.602 119.865 155.845 119.588C156.217 119.129 156.122 118.86 155.845 118.592L155.698 118.436C154.702 117.431 153.706 116.418 152.701 115.422C152.536 115.257 152.363 115.145 151.982 115.422C151.748 115.612 151.497 115.786 151.246 115.968C150.837 116.253 150.444 116.559 150.068 116.886C149.424 117.425 148.537 117.569 147.756 117.262C146.974 116.955 146.423 116.246 146.317 115.413C146.274 114.954 146.205 114.495 146.127 114.036C146.049 113.577 145.997 113.239 145.954 112.841C145.91 112.442 145.789 112.338 145.382 112.338H141.051C140.687 112.338 140.514 112.46 140.462 112.849C140.41 113.239 140.35 113.542 140.289 113.88C140.185 114.495 140.081 115.119 140.029 115.734C139.978 116.338 139.593 116.862 139.033 117.094C138.101 117.779 136.792 117.599 136.08 116.686C135.813 116.417 135.523 116.17 135.213 115.95C134.997 115.794 134.78 115.638 134.572 115.465C134.183 115.145 133.949 115.231 133.706 115.465C132.676 116.47 131.61 117.544 130.45 118.739C130.294 118.895 130.172 119.077 130.45 119.441C130.614 119.623 130.761 119.822 130.909 120.021C131.114 120.314 131.343 120.589 131.593 120.844C132.615 121.656 132.804 123.136 132.017 124.179C131.804 124.658 131.352 124.988 130.831 125.045C130.268 125.105 129.705 125.192 129.098 125.279L127.799 125.478C127.444 125.521 127.323 125.651 127.323 125.997C127.323 127.458 127.323 128.922 127.323 130.389C127.323 130.761 127.453 130.9 127.851 130.943C128.096 130.964 128.339 131.001 128.579 131.056C128.898 131.125 129.223 131.163 129.549 131.168C130.979 130.972 132.301 131.959 132.52 133.386C132.718 133.898 132.625 134.477 132.277 134.901C132.017 135.213 131.766 135.542 131.515 135.863C131.264 136.183 130.952 136.599 130.649 136.954C130.482 137.08 130.383 137.277 130.383 137.487C130.383 137.696 130.482 137.893 130.649 138.019C131.264 138.643 131.896 139.258 132.52 139.882L132.719 140.081L133.698 141.051C133.949 141.302 134.139 141.371 134.564 141.051L136.218 139.786L136.85 139.31C137.432 138.972 138.143 138.946 138.747 139.241C139.383 139.432 139.876 139.936 140.055 140.575C140.194 141.441 140.376 142.541 140.514 143.684C140.566 144.065 140.705 144.169 141.094 144.169H144.559L144.568 144.143ZM143.346 134.174V133.741L143.294 134.165C142.107 134.185 140.945 133.823 139.977 133.134C138.402 132.034 137.457 130.24 137.439 128.319C137.434 125.097 140.022 122.472 143.243 122.429C144.805 122.415 146.309 123.024 147.422 124.121C148.536 125.218 149.166 126.713 149.176 128.275C149.184 129.841 148.559 131.343 147.443 132.442C146.344 133.538 144.856 134.155 143.303 134.156L143.346 134.174ZM143.286 123.295C141.094 123.295 139.156 124.721 138.505 126.814C137.853 128.907 138.64 131.181 140.445 132.424C141.276 133 142.266 133.303 143.277 133.29C144.613 133.294 145.894 132.764 146.837 131.818C148.259 130.384 148.68 128.237 147.906 126.373C147.132 124.508 145.313 123.291 143.294 123.286L143.286 123.295Z" fill="#F4F6F7"/>
<defs>
<linearGradient id="paint0_linear" x1="183.726" y1="161.622" x2="168.387" y2="161.622" gradientUnits="userSpaceOnUse">
<stop stop-color="#CFCFCC"/>
<stop offset="0.23" stop-color="white"/>
</linearGradient>
<linearGradient id="paint1_linear" x1="197.861" y1="190.993" x2="212.499" y2="190.993" gradientUnits="userSpaceOnUse">
<stop offset="0.3" stop-color="#161D34"/>
<stop offset="1" stop-color="#193559"/>
</linearGradient>
</defs>
</svg>
